<?xml version="1.0" encoding="iso-8859-1"?>
<!-- Generator: Adobe Illustrator 19.0.0, SVG Export Plug-In . SVG Version: 6.00 Build 0)  -->
<svg xmlns="http://www.w3.org/2000/svg" xmlns:xlink="http://www.w3.org/1999/xlink" version="1.1" id="Capa_1" x="0px" y="0px" viewBox="0 0 511.999 511.999" style="enable-background:new 0 0 511.999 511.999;" xml:space="preserve" width="512px" height="512px">
<g>
	<g>
		<path d="M244.093,110.375c-1.221-5.386-6.579-8.759-11.964-7.54c-28.168,6.388-52.105,21.77-69.226,44.482    c-3.324,4.411-2.444,10.681,1.966,14.005c1.803,1.359,3.916,2.015,6.012,2.015c3.032,0,6.028-1.373,7.993-3.981    c14.238-18.888,34.183-31.688,57.678-37.017C241.938,121.117,245.314,115.761,244.093,110.375z" fill="#FDFDFD"/>
	</g>
</g>
<g>
	<g>
		<path d="M160.448,169.218c-5.063-2.211-10.957,0.101-13.166,5.162c-0.005,0.013-0.067,0.154-0.072,0.167    c-2.19,5.07,0.146,10.956,5.216,13.145c1.292,0.558,2.636,0.822,3.96,0.822c3.87-0.001,7.554-2.26,9.185-6.038l-9.162-4.007    l9.045,3.849l0.156,0.068c0,0,0-0.001,0.001-0.001C167.819,177.322,165.508,171.428,160.448,169.218z" fill="#FDFDFD"/>
	</g>
</g>
<g>
	<g>
		<path d="M510.946,36.767c-1.317-2.641-3.735-4.565-6.605-5.256c-51.11-12.312-107.339-3.338-139.918,22.326    c-11.394,8.975-19.106,19.347-22.844,30.557c-53.774-28.759-119.67-26.888-169.307,6.186c-0.857,0.571-1.706,1.152-2.55,1.74    c-3.953-10.476-11.405-20.183-22.146-28.644C114.997,38.011,58.769,29.039,7.658,41.349c-2.87,0.691-5.288,2.615-6.606,5.256    c-1.318,2.642-1.402,5.73-0.229,8.439C6.8,68.845,10.745,84.214,14.56,99.077c6.308,24.572,12.265,47.782,26.785,65.382    c14.441,17.505,35.292,26.289,63.448,26.718c-8.708,35.921-8.564,77.102,0.451,122.739c-3.714,3.754-7.174,7.495-10.429,11.264    c-7.88-12.471-14.627-30.406-19.512-56.083c-0.726-3.817-3.598-6.868-7.364-7.824c-3.767-0.957-7.746,0.357-10.204,3.366    c-6.82,8.348-25.973,73.926,2.54,122.39c1.287,2.187,2.67,4.29,4.111,6.342c0.904,23.241,15.161,43.648,41.454,59.193    c35.933,21.245,93.665,33.381,158.632,33.381c0.652,0,1.308-0.001,1.962-0.004c65.413-0.245,124.221-12.624,161.345-33.962    c33.484-19.247,42.146-41.867,43.057-58.545c1.457-2.071,2.854-4.195,4.154-6.404c28.513-48.463,9.36-114.042,2.54-122.39    c-2.458-3.009-6.44-4.323-10.203-3.366c-3.767,0.956-6.639,4.007-7.364,7.824c-5.021,26.396-12.01,44.621-20.176,57.128    c-3.844-4.189-7.982-8.367-12.412-12.503c10.349-49.172,8.819-93.797-4.56-132.719c-0.056-0.161-0.114-0.319-0.17-0.48    c25.632-0.708,44.03-8.696,55.943-24.263c12.4-16.207,16.042-37.767,19.897-60.594c2.881-17.055,5.86-34.691,12.689-50.46    C512.349,42.497,512.265,39.408,510.946,36.767z M56.773,151.733C45.09,137.57,39.67,116.458,33.933,94.105    c-3.026-11.789-6.13-23.88-10.311-35.66c47.897-8.413,89.945,3.899,111.578,20.94c7.304,5.754,15.863,14.853,17.532,26.705    c-3.536,3.315-6.922,6.798-10.143,10.451c-11.157-14.891-26.817-25.979-46.021-32.399c-5.238-1.749-10.903,1.075-12.655,6.313    c-1.751,5.238,1.075,10.903,6.313,12.655c17.468,5.84,30.741,15.951,39.561,30.069c-7.717,11.519-14.099,24.242-19.018,37.984    C77.707,172.126,64.159,160.685,56.773,151.733z M82.366,384.093c-0.082-0.111-0.161-0.224-0.247-0.331    c-0.386-0.513-0.781-1.018-1.153-1.541c-15.539-21.86-17.205-49.579-15.014-71.185c9.18,24.677,21.903,41.638,38.464,51.427    c20.983,12.403,43.55,10.355,60.025,8.859c0.306-0.028,0.6-0.054,0.903-0.081c2.82,19.077,13.064,35.736,27.664,46.884    c-24.368,1.657-45.51,0.19-63.112-4.446C109.115,408.205,93.148,398.249,82.366,384.093z M184.555,360.549    c0-12.24,2.858-52.174,39.641-52.174h86.877c36.78,0,39.639,39.935,39.639,52.175c-0.001,28.769-23.115,52.174-51.527,52.174    h-63.103C207.67,412.724,184.555,389.319,184.555,360.549z M417.812,434.64c-33.701,19.371-90.319,31.073-151.453,31.302    c-61.361,0.252-117.55-11.206-150.34-30.593c-6.091-3.602-11.309-7.412-15.652-11.42c5.932,2.966,12.312,5.501,19.142,7.586    c15.866,4.843,34.235,7.265,54.956,7.265c18.9,0,39.766-2.025,62.457-6.056h61.421c22.694,4.032,43.556,6.057,62.458,6.057    c20.719,0,39.092-2.422,54.955-7.265c5.35-1.633,10.416-3.552,15.217-5.727C427.133,428.851,422.748,431.803,417.812,434.64z     M430.849,362.463c16.563-9.789,29.285-26.75,38.464-51.426c2.191,21.605,0.525,49.324-15.014,71.183    c-0.364,0.512-0.751,1.006-1.128,1.507c-0.032,0.039-0.06,0.082-0.091,0.121c-10.783,14.286-26.813,24.326-47.712,29.831    c-17.602,4.636-38.744,6.103-63.111,4.446c14.6-11.149,24.844-27.807,27.664-46.884c0.303,0.027,0.598,0.053,0.903,0.081    C387.302,372.818,409.869,374.865,430.849,362.463z M426.426,341.263c-16.941,13.48-36.53,11.709-53.793,10.141    c-0.78-0.071-1.544-0.139-2.308-0.207c-3.121-38.472-25.673-62.822-59.253-62.822h-86.877c-33.581,0-56.134,24.35-59.254,62.821    c-0.763,0.068-1.527,0.136-2.307,0.207c-17.556,1.592-37.512,3.397-54.645-10.833c4.515-5.403,9.495-10.744,15.094-16.169    c2.469-2.392,3.536-5.884,2.826-9.248c-19.954-94.521,0.987-170.309,57.452-207.931c48.045-32.012,113.627-30.572,163.191,3.582    c8.579,5.912,16.365,12.562,23.353,19.879c0.436,0.58,0.941,1.107,1.498,1.583c11.087,11.962,20.072,25.665,26.889,40.855    c0.232,0.749,0.545,1.464,0.94,2.129c16.645,38.577,19.504,86.501,7.392,139.748c-0.808,3.55,0.378,7.257,3.095,9.681    C415.865,330.167,421.45,335.719,426.426,341.263z M478.767,92.336c-7.083,41.928-11.845,70.105-64.399,68.181    c-6.799-14.018-15.283-26.876-25.275-38.335c6.629-18.206,23.803-31.29,38.026-36.045c5.237-1.751,8.064-7.417,6.313-12.655    c-1.752-5.237-7.415-8.064-12.655-6.313c-17.104,5.718-36.352,19.724-46.784,39.771c-4.631-4.108-9.504-7.959-14.595-11.55    c1.95-11.434,10.275-20.23,17.401-25.844c21.652-17.056,63.759-29.373,111.704-20.918    C483.704,63.098,481.202,77.911,478.767,92.336z" fill="#FDFDFD"/>
	</g>
</g>
<g>
	<g>
		<path d="M215.353,204.365c-11.087,0-20.108,9.073-20.108,20.225c0,11.153,9.02,20.226,20.108,20.226    c11.088,0,20.108-9.073,20.108-20.226C235.461,213.439,226.441,204.365,215.353,204.365z" fill="#FDFDFD"/>
	</g>
</g>
<g>
	<g>
		<path d="M319.912,204.365c-11.088,0-20.108,9.073-20.108,20.225c0,11.153,9.02,20.226,20.108,20.226s20.108-9.073,20.108-20.226    C340.02,213.439,331,204.365,319.912,204.365z" fill="#FDFDFD"/>
	</g>
</g>
<g>
	<g>
		<path d="M236.49,345.496c-5.523,0-10,4.477-10,10v10.106c0,5.523,4.477,10,10,10c5.523,0,10-4.477,10-10v-10.106    C246.49,349.973,242.013,345.496,236.49,345.496z" fill="#FDFDFD"/>
	</g>
</g>
<g>
	<g>
		<path d="M298.776,345.496c-5.523,0-10,4.477-10,10v10.106c0,5.523,4.478,10,10,10c5.522,0,10-4.477,10-10v-10.106    C308.776,349.973,304.299,345.496,298.776,345.496z" fill="#FDFDFD"/>
	</g>
</g>
<g>
</g>
<g>
</g>
<g>
</g>
<g>
</g>
<g>
</g>
<g>
</g>
<g>
</g>
<g>
</g>
<g>
</g>
<g>
</g>
<g>
</g>
<g>
</g>
<g>
</g>
<g>
</g>
<g>
</g>
</svg>
