<?xml version="1.0" encoding="iso-8859-1"?>
<!-- Generator: Adobe Illustrator 19.0.0, SVG Export Plug-In . SVG Version: 6.00 Build 0)  -->
<svg xmlns="http://www.w3.org/2000/svg" xmlns:xlink="http://www.w3.org/1999/xlink" version="1.1" id="Capa_1" x="0px" y="0px" viewBox="0 0 512.001 512.001" style="enable-background:new 0 0 512.001 512.001;" xml:space="preserve" width="512px" height="512px">
<g>
	<g>
		<path d="M508.08,237.072c-3.032-3.283-7.324-4.989-11.775-4.675c-46.449,3.256-92.345-9.437-130.191-35.826l6.938-6.938    c0.003-0.003,0.005-0.006,0.007-0.008l8.658-8.658c5.004-5.004,7.76-11.658,7.76-18.733c0-7.077-2.756-13.731-7.76-18.732    l-13.211-13.212c-10.33-10.329-27.136-10.329-37.466,0l-8.666,8.666l-5.2,5.2l-1.743,1.743    c-26.391-37.849-39.076-83.727-35.823-130.195c0.312-4.451-1.392-8.743-4.675-11.775c-3.308-3.055-7.763-4.42-12.216-3.753    c-46.536,6.985-88.764,28.307-122.118,61.661c-33.355,33.355-54.677,75.582-61.662,122.118c-0.669,4.456,0.699,8.909,3.754,12.216    c3.033,3.284,7.332,4.994,11.775,4.675c46.474-3.248,92.347,9.431,130.195,35.823L50.579,410.753    c-3.115,3.115-3.115,8.165,0,11.28c1.557,1.557,3.598,2.336,5.64,2.336c2.042,0,4.082-0.779,5.64-2.336L222.841,261.05    l28.118,28.118L49.893,490.234c-7.753,7.753-20.367,7.753-28.119,0c-3.756-3.755-5.824-8.748-5.824-14.058    c0-5.311,2.068-10.304,5.824-14.059l18.018-18.018c3.115-3.115,3.115-8.165,0-11.28c-3.114-3.113-8.165-3.113-11.279,0    l-18.018,18.018C3.728,457.605,0,466.603,0,476.175s3.728,18.569,10.496,25.338c6.986,6.985,16.162,10.478,25.338,10.478    c9.177,0,18.352-3.493,25.338-10.478l209.037-209.037l5.134-5.134c26.393,37.849,39.076,83.722,35.822,130.196    c-0.312,4.45,1.392,8.741,4.674,11.774c2.756,2.546,6.308,3.921,9.997,3.921c0.736,0,1.479-0.055,2.221-0.166    c46.535-6.985,88.763-28.307,122.118-61.661c33.355-33.354,54.677-75.581,61.662-122.118    C512.503,244.832,511.135,240.379,508.08,237.072z M342.321,141.57c4.109-4.111,10.799-4.11,14.908-0.001l13.211,13.212    c1.991,1.991,3.087,4.638,3.087,7.454c0,2.815-1.097,5.464-3.088,7.454l-3.026,3.026l-28.118-28.118L342.321,141.57z     M94.945,184.827c6.703-42.547,26.369-81.145,56.937-111.713c30.565-30.565,69.167-50.232,111.712-56.936    c-3.171,50.52,11.127,100.313,40.405,141.155L236.1,225.232C195.256,195.952,145.471,181.652,94.945,184.827z M438.894,360.126    c-30.567,30.568-69.167,50.234-111.713,56.937c3.174-50.528-11.124-100.312-40.405-141.156l27.131-27.131    c3.115-3.115,3.115-8.165,0-11.28c-3.114-3.113-8.165-3.113-11.279,0l-31.348,31.348c-0.474,0.378-0.89,0.8-1.254,1.254    l-7.789,7.789l-28.119-28.118l93.897-93.897l28.118,28.118L353,187.124c-0.004,0.004-0.008,0.009-0.013,0.014l-20.561,20.56    c-3.115,3.114-3.115,8.165,0,11.279c3.114,3.115,8.165,3.114,11.279,0.001l10.969-10.969    c40.84,29.276,90.649,43.573,141.157,40.403C489.128,290.962,469.461,329.559,438.894,360.126z" fill="#FDFDFD"/>
	</g>
</g>
<g>
	<g>
		<path d="M459.754,266.161c-4.155-1.458-8.709,0.722-10.171,4.877c-8.139,23.127-21.123,43.712-38.595,61.185    c-17.663,17.663-38.497,30.735-61.923,38.852c-4.162,1.442-6.367,5.986-4.925,10.147c1.142,3.298,4.231,5.367,7.535,5.367    c0.866,0,1.747-0.142,2.612-0.441c25.723-8.913,48.595-23.261,67.979-42.646c19.172-19.173,33.425-41.772,42.362-67.17    C466.092,272.177,463.909,267.623,459.754,266.161z" fill="#FDFDFD"/>
	</g>
</g>
<g>
	<g>
		<path d="M245.846,52.256c-1.462-4.156-6.014-6.336-10.171-4.878c-25.397,8.937-47.995,23.19-67.168,42.362    c-20.396,20.396-35.18,44.574-43.942,71.864c-1.346,4.194,0.962,8.686,5.156,10.032c0.811,0.261,1.631,0.384,2.44,0.384    c3.372,0,6.506-2.156,7.592-5.539c7.979-24.852,21.447-46.876,40.034-65.461c17.471-17.471,38.057-30.456,61.184-38.594    C245.125,60.965,247.308,56.411,245.846,52.256z" fill="#FDFDFD"/>
	</g>
</g>
<g>
</g>
<g>
</g>
<g>
</g>
<g>
</g>
<g>
</g>
<g>
</g>
<g>
</g>
<g>
</g>
<g>
</g>
<g>
</g>
<g>
</g>
<g>
</g>
<g>
</g>
<g>
</g>
<g>
</g>
</svg>
