<?xml version="1.0" encoding="iso-8859-1"?>
<!-- Generator: Adobe Illustrator 19.0.0, SVG Export Plug-In . SVG Version: 6.00 Build 0)  -->
<svg xmlns="http://www.w3.org/2000/svg" xmlns:xlink="http://www.w3.org/1999/xlink" version="1.1" id="Capa_1" x="0px" y="0px" viewBox="0 0 512 512" style="enable-background:new 0 0 512 512;" xml:space="preserve" width="512px" height="512px">
<g>
	<g>
		<path d="M166.001,89.999h-60.999c-8.284,0-15,6.716-15,15c0,8.284,6.716,15,15,15h60.999c8.284,0,15-6.716,15-15    C181,96.715,174.284,89.999,166.001,89.999z" fill="#FDFDFD"/>
	</g>
</g>
<g>
	<g>
		<path d="M196,149.998H75.002c-8.284,0-15,6.716-15,15c0,8.284,6.716,15,15,15H196c8.284,0,15-6.716,15-15    C211,156.714,204.284,149.998,196,149.998z" fill="#FDFDFD"/>
	</g>
</g>
<g>
	<g>
		<path d="M166.001,209.998h-60.999c-8.284,0-15,6.716-15,15s6.716,15,15,15h60.999c8.284,0,15-6.716,15-15    S174.284,209.998,166.001,209.998z" fill="#FDFDFD"/>
	</g>
</g>
<g>
	<g>
		<path d="M473.982,54.504C448.419,19.357,413.978,0,376.998,0c-52.542,0-98.217,39.645-120.856,97.516    c-6.016-15.62-13.778-30.113-23.159-43.012C207.422,19.357,172.98,0,136.001,0C61.012,0,0.002,80.747,0.002,179.998    c0,18.677,2.139,37.091,6.356,54.729c13.786,57.641,23.644,116.227,23.644,172.702v9.243c0,49.26,36.015,90.978,81.989,94.973    C165.076,516.261,211,474.47,211,421.995v-9.668c0-10.535,0.799-21.27,2.363-32.124c0.137-0.631,0.232-1.276,0.288-1.934    c4.696-30.832,15.579-62.584,32.161-93.422c3.825-7.113,7.212-14.54,10.188-22.209c2.976,7.669,6.364,15.096,10.189,22.209    c6.316,11.745,11.821,23.528,16.506,35.255c0.13,0.358,0.268,0.711,0.424,1.056C295.535,352.569,302,383.557,302,412.327v9.668    c0,51.278,43.664,94.375,98.009,89.65c45.975-3.996,81.989-45.712,81.989-94.973v-9.243c0-58.041,10.192-116.461,23.644-172.703    c4.218-17.639,6.356-36.053,6.356-54.728C511.998,132.78,498.497,88.212,473.982,54.504z M181,412.327v9.668    c0,35.661-31.552,62.794-66.411,59.763c-30.61-2.66-54.587-31.25-54.587-65.086v-9.243c0-5.102-0.074-10.345-0.221-15.534h122.073    C181.292,398.725,181,405.609,181,412.327z M186.053,361.996H58.156c-0.827-10.417-1.936-21.166-3.333-32.1h139.4    C190.87,340.579,188.141,351.365,186.053,361.996z M219.39,270.641c-5.217,9.702-9.916,19.504-14.098,29.356H50.383    c-3.783-22.646-8.71-46.586-14.847-72.247c-3.672-15.356-5.534-31.423-5.534-47.751c0-40.815,11.624-79.092,32.729-107.783    C82.758,44.992,108.778,30,136.001,30c27.128,0,52.953,14.969,72.722,42.15C229.537,100.77,241,139.07,241,179.998    C241,213.005,233.527,244.349,219.39,270.641z M451.997,416.672c0,33.837-23.978,62.426-54.587,65.086    c-36.2,3.145-65.411-25.448-65.411-59.763v-9.668c0-6.688-0.311-13.573-0.914-20.432h121.133    c-0.146,5.189-0.221,10.433-0.221,15.534L451.997,416.672L451.997,416.672z M453.843,361.996h-127.2    c-2.18-10.572-5.015-21.357-8.495-32.1h139.027C455.779,340.83,454.67,351.579,453.843,361.996z M476.463,227.749    c-6.137,25.662-11.064,49.601-14.847,72.247h-154.8c-4.227-9.8-8.96-19.6-14.206-29.356C278.472,244.35,271,213.007,271,179.998    c0-40.815,11.624-79.092,32.729-107.783C323.755,44.992,349.775,30,376.998,30c27.128,0,52.953,14.969,72.722,42.15    c20.814,28.621,32.277,66.921,32.277,107.849C481.997,196.328,480.135,212.393,476.463,227.749z" fill="#FDFDFD"/>
	</g>
</g>
<g>
	<g>
		<path d="M406.998,89.999h-59.999c-8.284,0-15,6.716-15,15c0,8.284,6.716,15,15,15h59.999c8.284,0,15-6.716,15-15    C421.998,96.715,415.282,89.999,406.998,89.999z" fill="#FDFDFD"/>
	</g>
</g>
<g>
	<g>
		<path d="M436.997,149.998H316.999c-8.284,0-15,6.716-15,15c0,8.284,6.716,15,15,15h119.999c8.284,0,15-6.716,15-15    C451.997,156.714,445.281,149.998,436.997,149.998z" fill="#FDFDFD"/>
	</g>
</g>
<g>
	<g>
		<path d="M406.998,209.998h-59.999c-8.284,0-15,6.716-15,15s6.716,15,15,15h59.999c8.284,0,15-6.716,15-15    S415.282,209.998,406.998,209.998z" fill="#FDFDFD"/>
	</g>
</g>
<g>
</g>
<g>
</g>
<g>
</g>
<g>
</g>
<g>
</g>
<g>
</g>
<g>
</g>
<g>
</g>
<g>
</g>
<g>
</g>
<g>
</g>
<g>
</g>
<g>
</g>
<g>
</g>
<g>
</g>
</svg>
