<?xml version="1.0" encoding="iso-8859-1"?>
<!-- Generator: Adobe Illustrator 19.0.0, SVG Export Plug-In . SVG Version: 6.00 Build 0)  -->
<svg xmlns="http://www.w3.org/2000/svg" xmlns:xlink="http://www.w3.org/1999/xlink" version="1.1" id="Capa_1" x="0px" y="0px" viewBox="0 0 512.004 512.004" style="enable-background:new 0 0 512.004 512.004;" xml:space="preserve" width="512px" height="512px">
<g>
	<g>
		<path d="M240.705,364.069c-3.884-3.926-10.217-3.957-14.14-0.072c-3.938,3.897-9.396,6.132-14.977,6.132    c-5.58,0-11.038-2.235-14.977-6.132c-3.924-3.885-10.255-3.853-14.142,0.072c-3.885,3.925-3.853,10.257,0.073,14.142    c7.765,7.686,18.079,11.918,29.045,11.918s21.28-4.233,29.045-11.918C244.558,374.326,244.59,367.995,240.705,364.069z" fill="#FFFFFF"/>
	</g>
</g>
<g>
	<g>
		<path d="M268.304,277.691h-31.308c-5.523,0-10,4.477-10,10c0,5.523,4.477,10,10,10h31.308c5.522,0,10-4.477,10-10    C278.304,282.168,273.826,277.691,268.304,277.691z" fill="#FFFFFF"/>
	</g>
</g>
<g>
	<g>
		<path d="M268.304,237.691H205.61c-5.522,0-10,4.477-10,10s4.478,10,10,10h62.693c5.522,0,10-4.477,10-10    S273.826,237.691,268.304,237.691z" fill="#FFFFFF"/>
	</g>
</g>
<g>
	<g>
		<path d="M170.636,113.707c-4.241-3.538-10.545-2.97-14.085,1.27l-0.154,0.187c-3.539,4.24-2.971,10.546,1.269,14.085    c1.871,1.561,4.143,2.323,6.403,2.323c2.862,0,5.704-1.223,7.682-3.592l0.159-0.192    C175.443,123.547,174.873,117.245,170.636,113.707z" fill="#FFFFFF"/>
	</g>
</g>
<g>
	<g>
		<path d="M470.121,175.642c-0.014-0.136-0.039-0.268-0.059-0.403c-0.026-0.189-0.049-0.377-0.086-0.565    c-0.031-0.158-0.075-0.312-0.114-0.468c-0.04-0.161-0.075-0.322-0.124-0.481c-0.046-0.154-0.105-0.302-0.158-0.452    c-0.056-0.158-0.107-0.316-0.172-0.472c-0.059-0.139-0.126-0.272-0.19-0.409c-0.075-0.16-0.146-0.321-0.231-0.479    c-0.068-0.128-0.147-0.249-0.22-0.373c-0.093-0.156-0.182-0.314-0.283-0.466c-0.09-0.134-0.19-0.259-0.285-0.388    c-0.099-0.133-0.191-0.269-0.297-0.398c-0.179-0.217-0.369-0.423-0.564-0.623c-0.033-0.035-0.061-0.072-0.096-0.107    l-16.813-16.813c-3.906-3.904-10.236-3.905-14.143,0.001c-3.822,3.822-3.893,9.963-0.233,13.884h-16.927    c-5.995-32.488-21.817-62.455-46.03-86.425c-10.503-10.398-22.15-19.224-34.645-26.379l10.359-17.942    c1.306,4.277,5.244,7.08,9.548,7.08c0.856,0,1.728-0.111,2.594-0.343c5.335-1.43,8.501-6.913,7.071-12.248L361.874,7.43    c-0.087-0.33-0.192-0.655-0.313-0.974c-0.036-0.094-0.08-0.181-0.117-0.273c-0.087-0.21-0.174-0.419-0.274-0.624    c-0.061-0.123-0.131-0.239-0.196-0.358c-0.091-0.167-0.179-0.334-0.279-0.497c-0.074-0.118-0.156-0.229-0.234-0.344    c-0.106-0.156-0.21-0.313-0.325-0.462c-0.081-0.104-0.169-0.201-0.253-0.302c-0.125-0.149-0.248-0.3-0.382-0.443    c-0.089-0.094-0.184-0.18-0.275-0.27c-0.14-0.138-0.277-0.278-0.427-0.408c-0.109-0.096-0.226-0.181-0.339-0.271    c-0.141-0.113-0.277-0.229-0.426-0.336c-0.211-0.151-0.431-0.288-0.652-0.421c-0.059-0.036-0.111-0.077-0.171-0.111    c-0.041-0.024-0.084-0.041-0.125-0.064c-0.246-0.137-0.496-0.268-0.753-0.385c-0.141-0.064-0.285-0.114-0.427-0.171    c-0.148-0.059-0.292-0.125-0.442-0.177c-0.015-0.005-0.029-0.008-0.043-0.013c-0.158-0.054-0.318-0.094-0.478-0.139    c-0.155-0.044-0.309-0.093-0.466-0.13c-0.156-0.037-0.313-0.06-0.47-0.089c-0.165-0.031-0.33-0.065-0.497-0.087    c-0.146-0.019-0.293-0.027-0.44-0.039c-0.179-0.016-0.357-0.035-0.539-0.041c-0.141-0.004-0.28,0.003-0.421,0.004    c-0.184,0.002-0.37,0-0.557,0.012c-0.155,0.011-0.31,0.034-0.464,0.052c-0.17,0.019-0.338,0.032-0.507,0.06    c-0.276,0.045-0.549,0.107-0.819,0.176c-0.047,0.012-0.095,0.018-0.142,0.03L326.654,6.49c-5.335,1.429-8.501,6.913-7.071,12.247    c1.197,4.468,5.237,7.415,9.653,7.415c0.746,0,1.503-0.101,2.259-0.276l-11.01,19.069c-20.163-8.485-41.993-12.947-64.482-12.947    s-44.319,4.461-64.482,12.946l-11.01-19.068c0.756,0.175,1.512,0.276,2.258,0.276c4.415,0,8.456-2.947,9.653-7.414    c1.43-5.335-1.736-10.818-7.071-12.247L162.393,0.34c-0.322-0.086-0.647-0.156-0.977-0.211c-0.142-0.023-0.281-0.033-0.423-0.05    c-0.183-0.022-0.364-0.048-0.549-0.061c-0.169-0.011-0.337-0.009-0.505-0.011c-0.157-0.002-0.314-0.01-0.471-0.005    c-0.025,0.001-0.051-0.002-0.076-0.001c-0.148,0.006-0.294,0.027-0.441,0.039c-0.152,0.013-0.305,0.021-0.457,0.041    c-0.17,0.022-0.337,0.057-0.505,0.088c-0.153,0.028-0.307,0.051-0.459,0.087c-0.171,0.04-0.337,0.092-0.505,0.141    c-0.145,0.042-0.291,0.078-0.434,0.127c-0.198,0.067-0.391,0.148-0.584,0.228c-0.108,0.044-0.219,0.081-0.326,0.13    c-0.605,0.273-1.182,0.606-1.722,0.994c-0.098,0.07-0.188,0.149-0.282,0.222c-0.163,0.127-0.328,0.25-0.483,0.387    c-0.114,0.1-0.218,0.208-0.327,0.313c-0.126,0.122-0.255,0.24-0.375,0.368c-0.104,0.111-0.198,0.23-0.297,0.345    c-0.114,0.133-0.23,0.264-0.338,0.404c-0.087,0.113-0.163,0.232-0.245,0.349c-0.105,0.151-0.214,0.3-0.313,0.457    c-0.072,0.117-0.134,0.238-0.201,0.358c-0.093,0.165-0.188,0.327-0.272,0.498c-0.065,0.133-0.119,0.271-0.179,0.407    c-0.071,0.163-0.147,0.323-0.211,0.491c-0.082,0.22-0.149,0.445-0.216,0.67c-0.026,0.088-0.061,0.172-0.085,0.262    c-0.002,0.006-0.002,0.012-0.004,0.018l-6.149,22.949c-1.43,5.335,1.736,10.818,7.071,12.248c0.867,0.232,1.737,0.343,2.594,0.343    c4.303,0,8.242-2.803,9.549-7.081l10.359,17.943c-12.495,7.155-24.143,15.981-34.645,26.379    c-24.213,23.969-40.035,53.936-46.03,86.425H75.95c3.66-3.92,3.589-10.061-0.233-13.883c-3.906-3.905-10.236-3.905-14.143,0    l-16.812,16.813c-0.006,0.006-0.011,0.012-0.017,0.018c-0.226,0.228-0.441,0.465-0.645,0.714c-0.1,0.121-0.186,0.248-0.278,0.372    c-0.102,0.137-0.208,0.271-0.304,0.413c-0.099,0.148-0.185,0.301-0.275,0.453c-0.076,0.128-0.157,0.254-0.228,0.386    c-0.083,0.154-0.152,0.313-0.227,0.47c-0.065,0.139-0.135,0.275-0.193,0.417c-0.063,0.153-0.114,0.309-0.17,0.464    c-0.055,0.153-0.113,0.303-0.161,0.46c-0.047,0.157-0.082,0.316-0.122,0.476c-0.039,0.157-0.083,0.313-0.115,0.473    c-0.037,0.186-0.06,0.374-0.086,0.561c-0.019,0.136-0.045,0.27-0.059,0.407c-0.065,0.658-0.065,1.32,0,1.979    c0.014,0.138,0.04,0.271,0.059,0.407c0.026,0.187,0.049,0.374,0.086,0.561c0.032,0.16,0.076,0.315,0.115,0.473    c0.04,0.159,0.075,0.318,0.122,0.476c0.048,0.156,0.106,0.307,0.161,0.459c0.056,0.155,0.107,0.311,0.17,0.464    c0.059,0.142,0.128,0.278,0.193,0.417c0.074,0.158,0.144,0.316,0.227,0.47c0.07,0.132,0.151,0.257,0.228,0.386    c0.091,0.151,0.177,0.305,0.275,0.453c0.096,0.142,0.201,0.276,0.304,0.413c0.093,0.125,0.179,0.252,0.278,0.372    c0.203,0.249,0.419,0.486,0.645,0.714c0.006,0.006,0.011,0.012,0.017,0.018l16.813,16.814c1.953,1.953,4.512,2.929,7.071,2.929    s5.118-0.977,7.07-2.929c3.823-3.823,3.895-9.964,0.233-13.885h14.511c-0.188,3.196-0.293,6.407-0.293,9.634v115.001    c0,39.995,15.832,77.695,44.579,106.154c14.913,14.763,32.341,26.073,51.294,33.544c3.585,34.249,32.624,61.035,67.806,61.035    h61.371c37.596,0,68.182-30.586,68.182-68.183v-78.646c5.364-13.778,8.732-28.527,9.758-43.903h18.678    c21.137,0,38.333-17.069,38.333-38.049v-7.479c0-17.546-12.031-32.349-28.333-36.727v-42.746c0-3.227-0.105-6.438-0.293-9.634    h14.509c-3.66,3.921-3.589,10.062,0.233,13.884c1.953,1.953,4.512,2.929,7.071,2.929s5.118-0.977,7.071-2.929l16.813-16.813    c0.034-0.034,0.063-0.072,0.096-0.107c0.195-0.201,0.386-0.407,0.564-0.623c0.105-0.129,0.198-0.265,0.297-0.398    c0.096-0.129,0.195-0.254,0.285-0.388c0.102-0.152,0.19-0.31,0.283-0.466c0.073-0.124,0.151-0.245,0.22-0.373    c0.085-0.157,0.156-0.318,0.231-0.479c0.064-0.136,0.131-0.27,0.19-0.409c0.064-0.155,0.116-0.314,0.172-0.472    c0.054-0.15,0.112-0.298,0.158-0.452c0.049-0.159,0.084-0.32,0.124-0.481c0.039-0.156,0.083-0.31,0.114-0.468    c0.037-0.188,0.06-0.376,0.086-0.565c0.02-0.135,0.045-0.267,0.059-0.403c0.032-0.329,0.05-0.659,0.05-0.99    C470.171,176.301,470.153,175.971,470.121,175.642z M315.218,492.001h-61.371c-21.753,0-40.177-14.494-46.143-34.33    c11.074,2.532,22.506,3.84,34.131,3.84c49.696,0,93.887-23.801,121.565-60.5v42.807h0.001    C363.4,470.386,341.786,492.001,315.218,492.001z M430.17,275.74v7.479c0,9.952-8.224,18.049-18.333,18.049h-28.334    c-5.522,0-10,4.477-10,10c0,16.687-3.193,32.649-9,47.326c-0.268,0.526-0.497,1.075-0.671,1.65    c-19.606,47.614-66.898,81.268-121.996,81.268c-14.729,0-28.899-2.405-42.134-6.838c-0.467-0.206-0.953-0.372-1.454-0.506    c-51.243-17.835-88.08-66.188-88.08-122.9v-53.576h33.947v76.015c0,5.523,4.477,10,10,10h35.463c5.522,0,10-4.477,10-10    c0-5.523-4.478-10-10-10h-25.463v-76.015c0-5.523-4.478-10-10-10h-43.947v-41.424c0-3.238,0.119-6.448,0.333-9.634h89.666    c5.523,0,10-4.477,10-10s-4.477-10-10-10h-86.899c8.647-40.812,34.782-75.337,70.264-95.525l8.18,14.168    c-4.076,2.353-8.027,4.917-11.812,7.688c-4.456,3.263-5.423,9.52-2.16,13.976c1.959,2.675,4.997,4.092,8.076,4.092    c2.051,0,4.119-0.628,5.9-1.933c3.201-2.344,6.545-4.514,9.994-6.505l14.825,25.679c1.853,3.208,5.213,5.001,8.67,5.001    c1.696,0,3.415-0.432,4.99-1.341c4.783-2.761,6.422-8.877,3.66-13.66L219.94,94.172c10.549-3.753,21.56-5.861,32.858-6.267    c5.52-0.199,9.832-4.833,9.634-10.353c-0.197-5.52-4.872-9.823-10.353-9.634c-14.588,0.525-28.771,3.45-42.279,8.691    l-8.194-14.193c16.817-6.713,35.176-10.418,54.396-10.418c19.219,0,37.578,3.705,54.396,10.418l-32.25,55.858    c-2.762,4.783-1.123,10.899,3.66,13.66c1.575,0.909,3.294,1.341,4.99,1.341c3.456,0,6.817-1.793,8.67-5.001l33.006-57.167    c35.483,20.186,61.614,54.713,70.262,95.526h-86.9c-5.522,0-10,4.477-10,10c0,5.523,4.478,10,10,10h89.667    c0.214,3.186,0.333,6.396,0.333,9.634v41.424h-18.334c-5.522,0-10,4.477-10,10c0,5.523,4.478,10,10,10h28.334    C421.946,257.691,430.17,265.788,430.17,275.74z" fill="#FFFFFF"/>
	</g>
</g>
<g>
</g>
<g>
</g>
<g>
</g>
<g>
</g>
<g>
</g>
<g>
</g>
<g>
</g>
<g>
</g>
<g>
</g>
<g>
</g>
<g>
</g>
<g>
</g>
<g>
</g>
<g>
</g>
<g>
</g>
</svg>
